<svg xmlns="http://www.w3.org/2000/svg" viewBox="0 0 330 92" role="img" aria-labelledby="title desc">
  <title id="title">Этажи</title>
  <desc id="desc">Логотип агентства недвижимости Этажи: красный знак здания и надпись этажи</desc>
  <g fill="#e31e24">
    <path d="M8 65 22 22 80 2l51 63H8z"/>
    <path d="M75 7v9l49 53h-11L75 27v9l31 33H95L75 47v8l20 14H82L75 64v5H63V11l12-4z"/>
  </g>
  <g fill="#fff">
    <path d="M76 16 123 65h-9L76 25z"/>
    <path d="M76 31 110 65h-9L76 40z"/>
    <path d="M76 46 98 65h-9L76 55z"/>
    <path d="M76 61 88 65H76z"/>
  </g>
  <text x="148" y="67" fill="#e31e24" font-family="Arial Black, Arial, Helvetica, sans-serif" font-size="58" font-weight="900" letter-spacing="-1">этажи</text>
</svg>
