<svg width="360" height="88" viewBox="0 0 360 88" fill="none" xmlns="http://www.w3.org/2000/svg" role="img" aria-labelledby="title desc">
  <title id="title">Новостройки Борисоглебска</title>
  <desc id="desc">Логотип городского каталога новостроек Борисоглебска</desc>
  <rect width="360" height="88" rx="22" fill="#FFFFFF"/>
  <g transform="translate(18 14)">
    <rect x="0" y="10" width="54" height="54" rx="16" fill="#1E3A5F"/>
    <path d="M27 0C37.5 0 46 8.5 46 19C46 35.5 27 54 27 54C27 54 8 35.5 8 19C8 8.5 16.5 0 27 0Z" fill="#F28C28"/>
    <path d="M17 25.5L27 17L37 25.5V43H30.5V32H23.5V43H17V25.5Z" fill="#FFFFFF"/>
    <rect x="21" y="27" width="4" height="4" rx="1" fill="#1E3A5F"/>
    <rect x="29" y="27" width="4" height="4" rx="1" fill="#1E3A5F"/>
  </g>
  <text x="92" y="38" fill="#1E3A5F" font-family="Arial, Helvetica, sans-serif" font-size="24" font-weight="900">Новостройки</text>
  <text x="92" y="62" fill="#222831" font-family="Arial, Helvetica, sans-serif" font-size="19" font-weight="900">Борисоглебска</text>
  <text x="238" y="62" fill="#64748B" font-family="Arial, Helvetica, sans-serif" font-size="12" font-weight="700">городской каталог</text>
</svg>
