<svg xmlns="http://www.w3.org/2000/svg" viewBox="0 0 1200 630" role="img" aria-labelledby="title desc">
  <title id="title">Дом на Просторной 4А</title>
  <desc id="desc">Обложка для ссылок сайта о новом доме на Просторной 4А в Борисоглебске</desc>
  <defs>
    <linearGradient id="bg" x1="0" y1="0" x2="1" y2="1">
      <stop offset="0" stop-color="#fff8ef"/>
      <stop offset="0.58" stop-color="#ffffff"/>
      <stop offset="1" stop-color="#f2d5bf"/>
    </linearGradient>
  </defs>
  <rect width="1200" height="630" fill="url(#bg)"/>
  <rect x="0" y="0" width="24" height="630" fill="#e31e24"/>
  <g transform="translate(710 70)">
    <rect x="0" y="60" width="340" height="470" rx="6" fill="#b87a55"/>
    <rect x="36" y="0" width="350" height="530" rx="6" fill="#c98a63"/>
    <g fill="#f7efe7">
      <rect x="70" y="40" width="48" height="62"/><rect x="150" y="40" width="48" height="62"/><rect x="230" y="40" width="48" height="62"/>
      <rect x="70" y="118" width="48" height="62"/><rect x="150" y="118" width="48" height="62"/><rect x="230" y="118" width="48" height="62"/>
      <rect x="70" y="196" width="48" height="62"/><rect x="150" y="196" width="48" height="62"/><rect x="230" y="196" width="48" height="62"/>
      <rect x="70" y="274" width="48" height="62"/><rect x="150" y="274" width="48" height="62"/><rect x="230" y="274" width="48" height="62"/>
      <rect x="70" y="352" width="48" height="62"/><rect x="150" y="352" width="48" height="62"/><rect x="230" y="352" width="48" height="62"/>
      <rect x="70" y="430" width="48" height="62"/><rect x="150" y="430" width="48" height="62"/><rect x="230" y="430" width="48" height="62"/>
    </g>
    <rect x="158" y="480" width="70" height="50" fill="#6d432f"/>
  </g>
  <text x="82" y="110" font-family="Arial Black, Arial, sans-serif" font-size="56" font-weight="900" fill="#e31e24">этажи</text>
  <text x="82" y="245" font-family="Arial Black, Arial, sans-serif" font-size="96" font-weight="900" fill="#e31e24">ПРОСТОРНАЯ 4А</text>
  <text x="82" y="325" font-family="Arial, sans-serif" font-size="44" font-weight="800" fill="#151515">9-этажный кирпичный дом</text>
  <text x="82" y="400" font-family="Arial, sans-serif" font-size="30" fill="#333">закрытая территория • своя котельная • панорамные окна</text>
  <rect x="82" y="460" width="315" height="70" rx="8" fill="#e31e24"/>
  <text x="240" y="506" text-anchor="middle" font-family="Arial, sans-serif" font-size="30" font-weight="900" fill="#fff">Узнать первым</text>
</svg>
